<svg width="208" height="48" viewBox="0 0 208 48" fill="none" xmlns="http://www.w3.org/2000/svg">
<path d="M3.06445 23.9637L2.7573 9.95771C1.07821 9.46627 0.23867 8.2991 0.23867 6.4562C0.23867 5.2276 1.11917 4.10138 2.88016 3.07755C4.68211 2.05372 6.72977 1.31656 9.02316 0.866067C11.3165 0.374628 13.4871 0.128909 15.5347 0.128909C19.5482 0.128909 23.1316 0.804639 26.285 2.1561C29.4794 3.50756 32.0389 5.3095 33.9637 7.56194C37.8543 12.1897 39.7996 17.7184 39.7996 24.148C39.7996 30.332 37.9157 35.7378 34.148 40.3656C32.3051 42.6589 29.8275 44.5018 26.715 45.8943C23.6435 47.2457 19.9782 47.9215 15.719 47.9215C11.4599 47.9215 7.77408 47.3072 4.66163 46.0785C1.54918 44.8499 -0.00704967 43.3142 -0.00704967 41.4713C-0.00704967 39.6284 0.955354 38.4817 2.88016 38.0312L3.06445 23.9637ZM31.138 23.9023C31.138 19.4794 29.7865 15.6912 27.0836 12.5378C24.4216 9.38436 20.572 7.80766 15.5347 7.80766C14.1423 7.80766 12.8318 7.99195 11.6032 8.36053C11.4804 10.8587 11.4189 15.9778 11.4189 23.718C11.4189 31.4582 11.5008 36.8026 11.6647 39.7513C12.9752 40.0379 14.4495 40.1813 16.0876 40.1813C19.4048 40.1813 22.2306 39.3827 24.565 37.7855C28.947 34.714 31.138 30.0863 31.138 23.9023ZM80.6131 0.00604698C82.2922 0.00604698 83.6027 0.702254 84.5446 2.09467C85.5275 3.44613 86.019 5.16617 86.019 7.25479C86.019 9.30246 85.4456 15.0564 84.2989 24.5166C84.2989 26.7281 84.5242 29.6563 84.9746 33.3011C85.4661 36.905 86.1009 38.9731 86.879 39.5055C87.6161 39.997 88.1485 40.3041 88.4761 40.427C88.8038 40.5498 89.029 40.6522 89.1519 40.7341C89.3566 40.9389 89.459 41.3484 89.459 41.9627C89.459 43.519 88.9266 44.8909 87.8618 46.0785C86.7971 47.2662 85.4046 47.86 83.6846 47.86C82.0055 47.86 80.6131 47.1433 79.5074 45.71C78.4016 44.2356 77.644 42.3723 77.2345 40.1198C73.4258 45.3209 68.9619 47.9215 63.8427 47.9215C61.0988 47.9215 58.6416 47.2252 56.4711 45.8328C54.3006 44.3995 52.5806 42.5361 51.311 40.2427C48.7309 35.574 47.4409 30.3934 47.4409 24.7009C47.4409 17.9846 49.2429 12.1897 52.8467 7.31622C56.4506 2.44277 61.1193 0.00604698 66.8528 0.00604698C70.211 0.00604698 73.4053 0.907021 76.4359 2.70897C77.0502 0.907021 78.4426 0.00604698 80.6131 0.00604698ZM76.5587 25.0695L76.2516 11.5549C73.3439 9.05674 70.211 7.80766 66.8528 7.80766C64.027 7.80766 61.5289 9.42532 59.3583 12.6606C57.2288 15.855 56.164 19.7251 56.164 24.2709C56.164 28.8167 56.8602 32.6049 58.2526 35.6354C59.686 38.625 61.6517 40.1198 64.1499 40.1198C66.689 40.1198 69.2486 38.4408 71.8286 35.0826C74.4496 31.7244 76.0263 28.3867 76.5587 25.0695ZM99.2029 40.9799L99.6943 24.2709C99.6943 22.387 99.551 17.8617 99.2643 10.6949C97.79 9.8758 97.0528 8.5653 97.0528 6.76335C97.0528 5.49379 97.6671 4.38805 98.8957 3.44613C100.124 2.5042 101.66 1.78752 103.503 1.29608C106.943 0.436058 110.137 0.00604698 113.086 0.00604698C119.434 0.00604698 124.266 1.52132 127.584 4.55187C130.901 7.54146 132.559 11.2068 132.559 15.5478C132.559 19.8889 130.901 23.5747 127.584 26.6052C124.307 29.6358 120.069 31.1511 114.868 31.1511C111.755 31.1511 109.523 31.0692 108.172 30.9053L108.54 40.9799C108.54 45.4028 106.984 47.6143 103.872 47.6143C100.759 47.6143 99.2029 45.4028 99.2029 40.9799ZM108.049 22.7966C110.465 23.2471 112.82 23.4723 115.113 23.4723C117.448 23.4723 119.475 22.7556 121.195 21.3223C122.956 19.8479 123.836 17.9641 123.836 15.6707C123.836 13.3364 122.915 11.4525 121.072 10.0191C119.229 8.54482 116.669 7.80766 113.393 7.80766C111.591 7.80766 109.912 8.05338 108.356 8.54482C108.151 13.5821 108.049 18.3327 108.049 22.7966ZM139.576 40.9799L140.068 24.2709C140.068 22.387 139.924 17.8617 139.638 10.6949C138.163 9.8758 137.426 8.5653 137.426 6.76335C137.426 5.49379 138.041 4.38805 139.269 3.44613C140.498 2.5042 142.034 1.78752 143.876 1.29608C147.316 0.436058 150.511 0.00604698 153.459 0.00604698C159.807 0.00604698 164.64 1.52132 167.957 4.55187C171.274 7.54146 172.933 11.2068 172.933 15.5478C172.933 19.8889 171.274 23.5747 167.957 26.6052C164.681 29.6358 160.442 31.1511 155.241 31.1511C152.129 31.1511 149.897 31.0692 148.545 30.9053L148.914 40.9799C148.914 45.4028 147.357 47.6143 144.245 47.6143C141.133 47.6143 139.576 45.4028 139.576 40.9799ZM148.422 22.7966C150.838 23.2471 153.193 23.4723 155.487 23.4723C157.821 23.4723 159.848 22.7556 161.568 21.3223C163.329 19.8479 164.21 17.9641 164.21 15.6707C164.21 13.3364 163.288 11.4525 161.445 10.0191C159.602 8.54482 157.043 7.80766 153.767 7.80766C151.965 7.80766 150.286 8.05338 148.729 8.54482C148.525 13.5821 148.422 18.3327 148.422 22.7966ZM187.69 25.3766C187.69 25.3766 187.854 30.6187 188.181 41.1027C188.181 45.5257 186.646 47.7372 183.574 47.7372C180.134 47.7372 178.414 45.1366 178.414 39.9355C178.414 36.2497 178.946 30.7006 180.011 23.288C180.011 21.3632 179.786 18.435 179.335 14.5035C178.885 10.572 178.66 7.70528 178.66 5.90333C178.66 4.06043 179.069 2.66801 179.888 1.72609C180.707 0.743207 181.834 0.251767 183.267 0.251767C184.741 0.251767 185.867 0.804638 186.646 1.91038C187.465 3.01612 187.874 4.55187 187.874 6.51763C189.144 4.59282 190.72 3.03659 192.604 1.84895C194.529 0.6613 196.7 0.0674762 199.116 0.0674762C201.532 0.0674762 203.498 0.681777 205.013 1.91038C206.528 3.13898 207.286 4.49044 207.286 5.96476C207.286 7.39812 206.836 8.5653 205.935 9.46627C205.034 10.3672 204.03 10.8177 202.925 10.8177C201.819 10.8177 200.672 10.3468 199.484 9.40484C198.338 8.42196 197.56 7.93052 197.15 7.93052C195.717 7.93052 193.935 9.89628 191.806 13.8278C189.676 17.7184 188.304 21.568 187.69 25.3766Z" fill="white"/>
</svg>
